<?xml version="1.0" standalone="no"?>
<!DOCTYPE svg PUBLIC "-//W3C//DTD SVG 1.1//EN" "http://www.w3.org/Graphics/SVG/1.1/DTD/svg11.dtd" >
<svg xmlns="http://www.w3.org/2000/svg">
<metadata>Generated by IcoMoon</metadata>
<defs>
<font id="icomoon" horiz-adv-x="1024">
<font-face units-per-em="1024" ascent="960" descent="-64" />
<missing-glyph horiz-adv-x="1024" />
<glyph unicode="&#x20;" horiz-adv-x="512" d="" />
<glyph unicode="&#xe900;" glyph-name="va-iconFont_alcohol" d="M493.619 444.006c0.004 0.466 0.006 1.017 0.006 1.569 0 38.506-10.142 74.643-27.902 105.885l-3.695 6.414h-267.162l-4.198-7.475c-17.235-30.242-27.396-66.451-27.396-105.033 0-0.46 0.001-0.92 0.004-1.38 0-96.851 61.44-177.184 141.772-190.496v-226.355c-46.080-1.843-80.589-8.909-80.589-17.203 0-9.933 46.899-17.613 104.755-17.613s104.909 7.936 104.909 17.766c0 8.294-34.406 15.36-80.589 17.203v226.15c79.258 14.336 140.083 94.362 140.083 190.566zM328.448 281.088c-74.752 0-135.68 73.062-135.68 163.021-0.002 0.326-0.003 0.711-0.003 1.097 0 30.312 7.227 58.936 20.051 84.243l231.754-1.064c12.367-24.327 19.611-53.047 19.611-83.459 0-0.287-0.001-0.574-0.002-0.861 0.051-89.965-60.928-162.976-135.731-162.976zM776.448 807.322h-117.453v101.837h117.504zM776.448 681.062v94.925h-117.453v-94.976c-50.094-22.936-84.268-72.628-84.275-130.303v-563.866h286.003v563.917c0 0.025 0 0.054 0 0.083 0 57.655-34.181 107.327-83.385 129.856zM835.43 130.56h-232.96v279.552h232.96zM451.84 440.934s-6.4-147.763-121.395-147.763-130.765 147.763-130.765 147.763z" />
<glyph unicode="&#xe901;" glyph-name="va-iconFont_arrow-down" d="M492.083 311.859l1.946-1.126 1.638-0.768 1.741-0.768 1.946-0.717 1.536-0.512 2.099-0.563 1.485-0.358 2.099-0.358h10.752l2.099 0.358 1.485 0.358 2.099 0.563 1.536 0.512 1.946 0.717 1.741 0.768 1.587 0.768 1.997 1.178 1.229 0.768 2.15 1.536 0.819 0.563 257.587 206.080c10.148 7.068 16.706 18.678 16.706 31.82 0 21.349-17.307 38.656-38.656 38.656-10.111 0-19.316-3.882-26.205-10.237l-233.445-186.651-233.472 186.675c-6.133 4.279-13.743 6.836-21.95 6.836-21.349 0-38.656-17.307-38.656-38.656 0-11.238 4.795-21.355 12.451-28.419l260.583-208.152z" />
<glyph unicode="&#xe902;" glyph-name="va-iconFont_arrow-left" d="M375.859 467.917c-0.41-0.666-0.768-1.28-1.126-1.946s-0.512-1.075-0.768-1.638-0.563-1.126-0.768-1.741-0.461-1.28-0.717-1.946-0.358-1.024-0.512-1.536-0.358-1.434-0.563-2.099 0-0.973-0.358-1.485 0-1.382-0.358-2.099 0-1.075 0-1.587 0-1.331 0-1.997 0-1.178 0-1.792 0-1.178 0-1.792 0-1.331 0-1.997 0-1.075 0-1.587 0-1.434 0.358-2.099 0-1.024 0.358-1.485 0.358-1.434 0.563-2.099 0.358-1.024 0.512-1.536 0.461-1.28 0.717-1.946 0.512-1.178 0.768-1.741l0.768-1.587c0.358-0.666 0.768-1.331 1.178-1.997l0.768-1.229c0.461-0.717 1.024-1.434 1.536-2.15l0.563-0.819 206.080-257.587c7.068-10.148 18.678-16.706 31.82-16.706 21.349 0 38.656 17.307 38.656 38.656 0 10.111-3.882 19.316-10.237 26.205l-186.651 233.445 186.675 233.472c4.279 6.133 6.836 13.743 6.836 21.95 0 21.349-17.307 38.656-38.656 38.656-11.238 0-21.355-4.795-28.419-12.451l-206.667-258.382c-0.512-0.666-1.024-1.382-1.485-2.099z" />
<glyph unicode="&#xe903;" glyph-name="va-iconFont_arrow-right" d="M648.141 428.083c0.41 0.666 0.768 1.28 1.126 1.946s0.512 1.075 0.768 1.638 0.563 1.126 0.768 1.741 0.461 1.28 0.717 1.946 0.358 1.024 0.512 1.536 0.358 1.434 0.563 2.099 0 0.973 0.358 1.485 0 1.382 0.358 2.099 0 1.075 0 1.587 0 1.331 0 1.997 0 1.178 0 1.792 0 1.178 0 1.792 0 1.331 0 1.997 0 1.075 0 1.587 0 1.434-0.358 2.099 0 1.024-0.358 1.485-0.358 1.434-0.563 2.099-0.358 1.024-0.512 1.536-0.461 1.28-0.717 1.946-0.512 1.178-0.768 1.741l-0.768 1.587c-0.358 0.666-0.768 1.331-1.178 1.997l-0.768 1.229c-0.461 0.717-1.024 1.434-1.536 2.15l-0.563 0.819-206.080 257.587c-7.068 10.148-18.678 16.706-31.82 16.706-21.349 0-38.656-17.307-38.656-38.656 0-10.111 3.882-19.316 10.237-26.205l186.651-233.445-186.675-233.472c-4.279-6.133-6.836-13.743-6.836-21.95 0-21.349 17.307-38.656 38.656-38.656 11.238 0 21.355 4.795 28.419 12.451l206.667 258.484c0.512 0.666 1.024 1.382 1.485 2.099z" />
<glyph unicode="&#xe904;" glyph-name="va-iconFont_arrow-up" d="M531.917 584.141l-1.946 1.126-1.638 0.768-1.741 0.768-1.946 0.717-1.536 0.512-2.099 0.563-1.485 0.358-2.099 0.358h-10.752l-2.099-0.358-1.485-0.358-2.099-0.563-1.536-0.512-1.946-0.717-1.741-0.768-1.587-0.768-1.997-1.178-1.229-0.768-2.15-1.536-0.819-0.563-257.587-206.080c-10.148-7.068-16.706-18.678-16.706-31.82 0-21.349 17.307-38.656 38.656-38.656 10.111 0 19.316 3.882 26.205 10.237l233.445 186.651 233.472-186.675c6.133-4.279 13.743-6.836 21.95-6.836 21.349 0 38.656 17.307 38.656 38.656 0 11.238-4.795 21.355-12.451 28.419l-260.583 208.152z" />
<glyph unicode="&#xe905;" glyph-name="va-iconFont_blind" d="M921.19 867.174c-6.603 6.733-15.794 10.906-25.961 10.906-0.035 0-0.070 0-0.106 0h0.005c-10.249-0.020-19.528-4.162-26.268-10.856l-163.684-163.582c-148.48 66.56-306.79 49.715-457.728-48.845-71.296-47.404-132.060-103.69-182.749-168.262-5.712-7.751-8.381-15.378-8.381-23.627 0-8.845 3.068-16.973 8.198-23.379 62.714-76.982 128.711-137.705 196.141-180.406l-193.536-193.587c-6.649-6.736-10.755-15.996-10.755-26.214s4.106-19.478 10.759-26.218c6.663-6.734 15.911-10.907 26.134-10.907s19.471 4.173 26.134 10.908l801.795 801.642c6.649 6.736 10.755 15.996 10.755 26.214s-4.106 19.478-10.759 26.218zM648.602 647.014l-46.746-46.746c-24.069 14.96-53.278 23.828-84.557 23.828-44.439 0-84.697-17.899-113.958-46.881-29.096-29.122-47.099-69.357-47.099-113.797 0-31.356 8.962-60.619 24.465-85.366l-65.827-64.913c-58.624 34.304-116.941 84.941-173.414 150.221 42.574 49.336 90.739 92.1 143.971 127.911 124.164 80.78 245.303 98.905 363.165 55.59zM969.779 486.451v0c-42.763 53.319-89.682 100.239-141.232 141.628-8.041 6.356-16.073 9.367-24.809 9.367-20.546 0-37.203-16.656-37.203-37.203 0-11.811 5.504-22.336 14.086-29.151 41.382-33.078 77.995-68.603 110.964-107.326-34.991-42.668-74.55-79.367-117.776-111.396-113.38-82.392-225.713-111.679-335.793-88.434-2.6 0.652-5.584 1.026-8.656 1.026-20.444 0-37.018-16.573-37.018-37.018 0-18.074 12.953-33.123 30.083-36.369 26.65-5.896 56.995-9.252 88.124-9.252 0.060 0 0.12 0 0.179 0 47.809 0.175 93.785 7.802 136.9 21.78 62.751 20.817 119.989 51.128 170.899 89.402 56.724 41.968 107.098 90.879 150.291 145.711l1.625 2.128c4.518 6.111 7.231 13.795 7.231 22.113 0 8.706-2.973 16.718-7.958 23.076z" />
<glyph unicode="&#xe906;" glyph-name="va-iconFont_calendar-flex" d="M353.69 721.459c0-17.357-18.432-31.386-40.96-31.386v0c-22.733 0-40.96 14.080-40.96 31.386v156.979c0 17.357 18.432 31.386 40.96 31.386v0c22.733 0 40.96-14.080 40.96-31.386zM738.253 721.459c0-17.357-18.432-31.386-40.96-31.386v0c-22.733 0-40.96 14.080-40.96 31.386v156.979c0 17.357 18.432 31.386 40.96 31.386v0c22.733 0 40.96-14.080 40.96-31.386zM305.101 237.619l40.96 38.861c18.483-20.787 37.683-32.307 65.024-32.307 22.323 0 38.093 12.646 38.093 32.666v0.768c0 21.965-19.61 34.253-52.685 34.253h-24.781l-9.216 37.734 64.205 64.614h-105.779v50.79h181.965v-44.595l-68.096-65.024c36.557-6.144 72.346-25.6 72.346-75.366v-0.973c0-50.79-36.915-88.115-96.973-88.115-48.486 0.154-81.971 19.354-105.062 46.694zM597.811 407.040l-46.95-11.52-12.288 48.486 77.312 23.091h40.397v-271.36h-58.47zM861.85 278.067c-83.445 0-151.091-67.646-151.091-151.091s67.646-151.091 151.091-151.091c83.445 0 151.091 67.646 151.091 151.091s-67.646 151.091-151.091 151.091zM806.912 85.811l-27.443 13.722-27.443 40.96h28.877c6.772 39.149 40.436 68.563 80.988 68.659 0.027 0 0.047 0 0.067 0 5.815 0 11.491-0.597 16.969-1.732l-6.068-26.838c-3.068 0.599-6.597 0.942-10.205 0.942-25.442 0-46.904-17.041-53.595-40.331l52.844-0.394-27.443-40.96zM942.848 113.254c-6.772-39.149-40.436-68.563-80.988-68.659-0.027 0-0.047 0-0.067 0-5.815 0-11.491 0.597-16.969 1.732l6.068 26.838c3.055-0.594 6.569-0.935 10.161-0.935 25.542 0 47.069 17.19 53.642 40.632l-52.847 0.392 27.443 40.96 27.443 13.722 27.443-13.722 27.443-40.96zM793.19 772.506h-13.722v-40.96c0-45.512-36.895-82.406-82.406-82.406s-82.406 36.895-82.406 82.406v40.96h-219.75v-40.96c0-45.512-36.895-82.406-82.406-82.406s-82.406 36.895-82.406 82.406v40.96h-13.722c-0.015 0-0.033 0-0.051 0-45.498 0-82.381-36.883-82.381-82.381 0-0.018 0-0.036 0-0.054v-576.816c0-45.498 36.883-82.381 82.381-82.381h463.411c-12.871 23.873-21.241 51.945-23.212 81.767l-385.159 0.614c-30.341 0-54.938 24.596-54.938 54.938v329.626c0 30.341 24.596 54.938 54.938 54.938h466.944c30.341 0 54.938-24.596 54.938-54.938v-176.845c20.426 7.571 44.019 11.976 68.635 12.032 4.684 0 9.189-0.41 13.746-0.717v357.786c0 0.015 0 0.033 0 0.051 0 45.498-36.883 82.381-82.381 82.381-0.018 0-0.036 0-0.054 0z" />
<glyph unicode="&#xe907;" glyph-name="va-iconFont_calendar-minus" d="M313.344 690.074c22.733 0 40.96 14.080 40.96 31.386v156.979c0 17.357-18.432 31.386-40.96 31.386s-40.96-14.080-40.96-31.386v-156.979c-0.256-17.459 18.227-31.386 40.96-31.386zM697.907 690.074c22.733 0 40.96 14.080 40.96 31.386v156.979c0 17.357-18.432 31.386-40.96 31.386s-40.96-14.080-40.96-31.386v-156.979c-0.256-17.459 18.176-31.386 40.96-31.386zM862.669 278.067c-83.445 0-151.091-67.646-151.091-151.091s67.646-151.091 151.091-151.091c83.445 0 151.091 67.646 151.091 151.091 0 0.018 0 0.036 0 0.054-0.029 83.421-67.664 151.037-151.091 151.037zM921.6 99.84h-110.182v52.070h110.182zM272.128 113.254c-30.341 0-54.938 24.596-54.938 54.938v329.626c0 30.341 24.596 54.938 54.938 54.938h466.944c30.341 0 54.938-24.596 54.938-54.938v-176.845c20.426 7.571 44.019 11.976 68.635 12.032 4.684 0 9.189-0.41 13.746-0.717v357.786c0 45.498-36.883 82.381-82.381 82.381h-13.722v-40.96c0-45.512-36.895-82.406-82.406-82.406s-82.406 36.895-82.406 82.406v40.96h-219.75v-40.96c0-45.512-36.895-82.406-82.406-82.406s-82.406 36.895-82.406 82.406v40.96h-13.722c-45.498 0-82.381-36.883-82.381-82.381v-576.819c0-45.498 36.883-82.381 82.381-82.381h463.411c-12.871 23.873-21.241 51.945-23.212 81.767zM294.298 243.2l37.837 35.84c17.152-19.302 35.021-30.003 60.365-30.003 20.48 0 35.328 11.776 35.328 30.362v0.717c0 20.48-18.227 31.795-48.896 31.795h-22.835l-8.55 35.021 59.648 60.109h-98.253v47.206h168.96v-41.421l-63.181-60.314c33.946-5.734 67.123-23.552 67.123-69.99v-0.717c0-47.155-34.304-81.92-90.010-81.92-45.005 0.102-76.083 17.971-97.536 43.315zM503.91 328.55v0.717c0 72.499 45.005 129.28 111.411 129.28s110.694-56.32 110.694-128.563v-0.717c0-72.499-44.646-129.28-111.411-129.28s-110.694 56.064-110.694 128.563zM669.594 328.55v0.717c0 45.363-22.17 79.616-54.989 79.616s-54.272-33.229-54.272-78.899v-0.717c0-45.722 21.76-79.616 54.989-79.616s54.323 33.536 54.323 78.899z" />
<glyph unicode="&#xe908;" glyph-name="va-iconFont_calendar-plus" d="M311.040 690.893c22.835 0 41.318 14.080 41.318 31.488v157.491c0 17.408-18.534 31.488-41.318 31.488s-41.318-14.080-41.318-31.488v-157.491c0-17.357 18.483-31.488 41.318-31.488zM696.832 690.893c22.835 0 41.318 14.080 41.318 31.488v157.491c0 17.408-18.534 31.488-41.318 31.488s-41.472-14.080-41.472-31.488v-157.491c0-17.357 18.688-31.488 41.472-31.488zM862.208 277.555c-83.7 0-151.552-67.852-151.552-151.552s67.852-151.552 151.552-151.552c83.682 0 151.523 67.823 151.552 151.498 0 83.713-67.846 151.577-151.549 151.606zM933.888 107.469h-49.818v-49.562h-39.27v49.562h-49.818v38.042h49.818v49.562h39.117v-49.562h49.818zM269.722 112.179c-30.414 0.029-55.062 24.677-55.091 55.088v330.704c0 30.436 24.659 55.113 55.088 55.142h468.483c30.414-0.029 55.062-24.677 55.091-55.088v-177.411c20.505 7.587 44.19 11.993 68.898 12.032 4.676 0 9.233-0.41 13.79-0.717v358.963c0 45.667-37.021 82.688-82.688 82.688h-13.773v-41.318c0.016-0.613 0.026-1.334 0.026-2.057 0-45.667-37.021-82.688-82.688-82.688s-82.688 37.021-82.688 82.688c0 0.723 0.009 1.445 0.028 2.164l-0.002 41.212h-220.467v-41.318c-1.15-44.774-37.719-80.631-82.662-80.631s-81.513 35.857-82.66 80.524l-0.002 41.425h-13.824c-45.667 0-82.688-37.021-82.688-82.688v-578.56c0-45.667 37.021-82.688 82.688-82.688h464.947c-12.933 23.96-21.34 52.138-23.315 82.074zM291.84 242.534l37.99 36.198c17.203-19.354 35.123-30.106 60.57-30.106 20.787 0 35.482 11.827 35.482 30.464v0.717c0 20.48-18.278 31.898-49.101 31.898h-22.835l-8.602 35.123 59.853 60.211h-98.509v47.258h169.472v-41.574l-63.437-60.518c34.048-5.734 67.379-23.654 67.379-70.246v-0.717c0-47.309-34.406-81.92-90.266-81.92-45.21-0.102-76.339 17.818-97.997 43.213zM502.272 328.192v0.717c0 72.704 45.158 129.69 111.77 129.69s111.053-56.32 111.053-128.973v-0.717c0-72.704-44.8-129.69-111.77-129.69s-111.053 56.218-111.053 128.973zM668.518 328.192v0.717c0 45.517-22.221 79.872-55.194 79.872s-54.477-33.331-54.477-79.155v-0.717c0-46.080 21.862-79.872 55.194-79.872s54.477 33.638 54.477 79.155z" />
<glyph unicode="&#xe909;" glyph-name="va-iconFont_calendar" d="M879.514 624.589h-735.898c-16.502-0.029-29.872-13.399-29.901-29.898v-480.668c0.174-16.353 13.471-29.542 29.848-29.542 0.019 0 0.037 0 0.056 0h735.895c0.030 0 0.066 0 0.102 0 16.457 0 29.798 13.341 29.798 29.798 0 0 0 0 0 0v480.41c0 16.514-13.387 29.901-29.901 29.901zM868.966 376.32v-233.421c0 0 0 0 0-0.001 0-5.195-4.183-9.414-9.364-9.471h-696.069c-5.187 0.058-9.37 4.276-9.37 9.471 0 0 0 0 0 0.001v422.861c0 0 0 0 0 0.001 0 5.195 4.183 9.414 9.364 9.471h696.069c5.187-0.058 9.37-4.276 9.37-9.471 0 0 0 0 0-0.001zM225.434 402.278h93.133v-93.184h-93.133v93.184zM383.949 402.278h93.133v-93.184h-93.133v93.184zM540.877 402.278h93.082v-93.184h-93.082v93.184zM699.341 402.278h93.184v-93.184h-93.184v93.184zM227.379 267.981h93.184v-93.184h-93.184v93.184zM385.946 267.981h93.133v-93.184h-93.133v93.184zM542.874 267.981h93.082v-93.184h-93.082v93.184zM701.389 267.981h93.133v-93.184h-93.133v93.184zM225.434 533.811h93.133v-93.184h-93.133v93.184zM383.949 533.811h93.133v-93.184h-93.133v93.184zM540.877 533.811h93.082v-93.184h-93.082v93.184zM699.341 533.811h93.184v-93.184h-93.184v93.184zM880.384 811.52h-735.898c-16.502-0.029-29.872-13.399-29.901-29.898v-67.382c0.029-16.463 13.382-29.798 29.85-29.798 0.018 0 0.036 0 0.054 0h735.895c0.030 0 0.066 0 0.102 0 16.457 0 29.798 13.341 29.798 29.798 0 0 0 0 0 0v67.635c-0.145 16.403-13.476 29.645-29.9 29.645 0 0-0.001 0-0.001 0z" />
<glyph unicode="&#xe90a;" glyph-name="va-iconFont_change-seat" d="M487.987 744.397h-6.707v43.981c0 31.105-25.215 56.32-56.32 56.32h-188.006c-31.105 0-56.32-25.215-56.32-56.32v-43.981h-6.554c-15.36 0-28.109-18.022-28.109-40.243v-165.632c0-22.221 12.595-40.243 28.109-40.243h6.656v-18.381c0-31.105 25.215-56.32 56.32-56.32h187.904c31.105 0 56.32 25.215 56.32 56.32v18.381h6.605c15.36 0 28.109 18.022 28.109 40.243v165.478c0.102 22.374-12.442 40.397-28.006 40.397zM825.856 644.608h-5.12v33.434c0 0 0 0 0 0 0 23.511-19.001 42.584-42.485 42.7h-143.371c-0.015 0-0.033 0-0.051 0-23.583 0-42.701-19.118-42.701-42.701v-33.434h-5.12c-11.776 0-21.35-13.722-21.35-30.72v-125.747c0-16.896 9.574-30.72 21.35-30.72h5.12v-6.758c0.029-23.589 19.159-42.701 42.752-42.701h143.36c0.015 0 0.033 0 0.051 0 23.583 0 42.701 19.118 42.701 42.701v6.912h5.12c11.776 0 21.35 13.722 21.35 30.72v125.747c-0.205 16.896-9.779 30.566-21.606 30.566zM596.070 613.888s0 0.461 0 0.666c14.939 1.946 26.359 14.588 26.368 29.9v33.588c0 0 0 0.001 0 0.001 0 6.902 5.552 12.508 12.433 12.594h143.368c6.956 0 12.595-5.639 12.595-12.595v-33.434c0.009-15.312 11.429-27.955 26.216-29.885s0.152-0.477 0.152-0.682v-125.901s0-0.307 0-0.461h-221.133s0 0.307 0 0.461zM505.6 287.949h-5.12v33.434c0 23.583-19.118 42.701-42.701 42.701-0.018 0-0.036 0-0.054 0h-142.948c-0.015 0-0.033 0-0.051 0-23.583 0-42.701-19.118-42.701-42.701v-33.434h-5.12c-11.776 0-21.35-13.722-21.35-30.72v-125.901c0-16.896 9.574-30.72 21.35-30.72h5.12v-6.758c0-23.583 19.118-42.701 42.701-42.701 0.018 0 0.036 0 0.054 0h143.050c0.015 0 0.033 0 0.051 0 23.583 0 42.701 19.118 42.701 42.701v6.758h5.12c11.776 0 21.35 13.722 21.35 30.72v126.054c-0.102 16.896-9.677 30.566-21.453 30.566zM275.814 257.229s0 0.461 0 0.666c14.897 1.994 26.266 14.621 26.266 29.905 0 0.053 0 0.105 0 0.158v33.425c0 6.956 5.639 12.595 12.595 12.595h143.155c6.956 0 12.595-5.639 12.595-12.595v-33.434c0-0.001 0-0.002 0-0.003 0-15.265 11.342-27.881 26.058-29.881s0.156-0.478 0.156-0.683v-125.901s0-0.307 0-0.461h-220.826s0 0.307 0 0.461zM821.658 287.949h-5.12v33.434c0 23.583-19.118 42.701-42.701 42.701-0.018 0-0.036 0-0.054 0h-142.948c-0.015 0-0.033 0-0.051 0-23.583 0-42.701-19.118-42.701-42.701v-33.434h-5.12c-11.776 0-21.35-13.722-21.35-30.72v-125.901c0-16.896 9.574-30.72 21.35-30.72h5.12v-6.758c0-23.583 19.118-42.701 42.701-42.701 0.018 0 0.036 0 0.054 0h143.101c0.015 0 0.033 0 0.051 0 23.583 0 42.701 19.118 42.701 42.701v6.758h5.12c11.776 0 21.35 13.722 21.35 30.72v126.054c-0.154 16.896-9.728 30.566-21.504 30.566zM591.872 257.229s0 0.461 0 0.666c14.939 1.946 26.359 14.588 26.368 29.9v33.435c0 6.956 5.639 12.595 12.595 12.595h143.104c6.956 0 12.595-5.639 12.595-12.595v-33.434c0.009-15.312 11.429-27.955 26.216-29.885s0.152-0.477 0.152-0.682v-125.901s0-0.307 0-0.461h-221.030s0 0.307 0 0.461z" />
<glyph unicode="&#xe90b;" glyph-name="va-iconFont_close" d="M231.782 812.237h-57.702l298.803-358.144-310.426-369.613h54.886l282.982 339.354 283.034-339.354h57.754l-310.477 371.098 298.803 356.659h-54.733l-272.947-326.349z" />
<glyph unicode="&#xe90c;" glyph-name="va-iconFont_cross" d="M661.197 448l243.917 243.917c13.926 13.926 11.725 38.656-5.12 55.296l-90.214 90.368c-16.64 16.64-41.421 18.842-55.296 5.12l-243.917-244.070-241.050 240.998c-13.926 13.926-38.656 11.725-55.296-5.12l-90.368-90.163c-16.64-16.64-18.842-41.421-5.12-55.296l241.203-241.050-240.998-240.998c-13.926-13.926-11.725-38.656 5.12-55.296l90.368-90.368c16.64-16.64 41.421-18.842 55.296-5.12l240.998 240.998 243.917-243.917c13.926-13.926 38.656-11.725 55.296 5.12l90.368 90.368c16.64 16.64 18.842 41.421 5.12 55.347z" />
<glyph unicode="&#xe90d;" glyph-name="va-iconFont_deaf" d="M580.403 197.12c-4.072-6.825-8.107-14.89-11.566-23.253-19.001-46.943-62.418-153.541-189.906-153.541-116.531 0-152.73 120.576-152.73 164.506-0.016 0.387-0.026 0.842-0.026 1.298 0 18.182 14.74 32.922 32.922 32.922s32.922-14.74 32.922-32.922c0-0.456-0.009-0.911-0.028-1.363 0.002-0.908 9.218-98.649 87.042-98.649 69.53 0 100.762 42.496 128.717 111.104 5.243 12.909 10.617 23.702 16.687 34.037 4.636 10.292 16.070 18.138 29.336 18.138 18.182 0 32.922-14.74 32.922-32.922 0-7.275-2.36-13.999-6.356-19.448zM896.614 62.771c-5.951-5.965-14.18-9.655-23.27-9.655s-17.319 3.69-23.27 9.654l-353.946 353.997c-0.008-0.046-0.012-0.099-0.012-0.154s0.004-0.107 0.013-0.159l-369.153 369.465c-5.955 5.955-9.639 14.183-9.639 23.27 0 18.175 14.734 32.909 32.909 32.909 9.088 0 17.315-3.684 23.27-9.639l103.68-103.731c38.451 86.374 132.403 146.944 238.182 146.944 129.792 0 269.875-108.288 269.875-283.136 0-133.632-49.51-210.944-101.018-270.848l212.378-212.378c5.952-5.957 9.634-14.184 9.634-23.27s-3.681-17.314-9.634-23.271zM637.594 368.23c44.954 52.941 81.92 114.534 81.92 224.256 0 134.246-105.933 217.344-204.083 217.344-101.734 0-169.984-67.072-186.317-133.12l70.246-69.99c37.939 110.746 67.021 137.421 136.653 137.421 64.256 0 117.76-46.643 117.76-135.987 0-13.875-1.229-28.518-13.056-28.518-30.157 0 10.803 98.714-88.422 98.714-63.078 0.051-93.798-52.787-83.661-141.056zM324.659 312.627c0-10.24 0-62.259 65.792-62.259 38.81 0 77.312 34.458 95.846 82.944l-97.28 97.28c0.826-2.394 1.392-5.167 1.582-8.043-0.148-60.155-65.94-43.669-65.94-109.921z" />
<glyph unicode="&#xe90e;" glyph-name="va-iconFont_dollar" d="M729.856 581.12c-43.162 30.72-96.41 50.33-145.613 60.16v-80.64c167.68-32.563 263.066-83.866 263.066-218.010v-2.15c0-130.202-103.424-206.131-261.12-218.010v-96.666h-104.294v96.666c-111.462 9.882-219.904 44.39-305.254 102.4l102.4 148.941c74.291-47.36 143.36-73.011 208.845-82.842v83.046c-177.715 33.536-271.053 87.808-271.053 216.986v1.997c0 122.317 89.344 212.070 269.107 220.928v56.32h104.397v-59.238c88.428-7.795 168.817-36.507 237.989-81.115zM489.933 570.317v79.872c-49.203-0.973-67.277-16.794-67.277-36.506v-1.843c0-20.838 15.053-32.666 67.277-41.523zM582.093 365.158v-79.872c46.080 1.997 64.256 16.794 64.256 37.478v1.997c0.205 20.838-12.851 31.488-64.051 40.397z" />
<glyph unicode="&#xe90f;" glyph-name="va-iconFont_elderly" d="M251.648 695.142c10.2-4.208 22.043-6.652 34.456-6.652 51.125 0 92.57 41.445 92.57 92.57s-41.445 92.57-92.57 92.57c-51.125 0-92.57-41.445-92.57-92.57 0-7.115 0.803-14.042 2.322-20.696 6.766-29.543 27.65-53.702 55.173-64.997zM904.346 80.077c-0.922 1.075-88.576 104.806-93.44 265.882-0.436 12.368-1.943 24.12-4.437 35.502-20.804 100.792-50.961 254.136-55.569 279.276-9.011 48.179-48.691 51.2-79.309 44.186s-52.070-23.347-64.717-64.358c-30.72-101.632-142.541-137.728-151.194-144.947-0.358 5.12-2.714 108.083-93.798 160.973-32.819 19.046-105.062 30.72-157.952 0.307-103.322-59.597-94.771-205.722-94.054-216.627 0.512-7.885 1.536-15.718 2.406-23.501 1.726-13.676 13.285-24.147 27.29-24.147 15.142 0 27.425 12.24 27.494 27.366v1.338c0 6.554-0.307 13.107 0 19.661 0.358 9.626 0.922 19.2 1.741 28.826 1.181 11.205 2.984 21.234 5.442 31.004 5.006 17.512 11.991 34.087 20.742 49.529 0.849 1.285 3.511 1.9 2.897-2.401s-5.12-511.488-5.12-511.488c0.819-15.718 10.24-29.184 40.96-29.184s39.066 22.374 39.066 31.181 0 214.016 0 223.744 19.2 13.466 19.2-0.307 1.69-223.488 1.69-223.488c0.768-15.718 13.21-31.334 40.397-31.334s36.25 15.718 36.25 33.536c0 29.645 0.41 499.046-0.87 503.808s1.946 5.427 3.379 2.867l2.611-4.25 2.355-4.506c5.873-11.333 10.61-24.478 13.539-38.291 2.309-9.274 4.112-19.303 5.217-29.542 0.905-10.605 1.468-20.18 1.827-29.805 0-6.554 0-22.426 0-23.091-14.234-10.24-13.67-34.202-9.318-40.346 2.605-3.715 6.868-6.114 11.691-6.114 6.427 0 11.859 4.26 13.627 10.11 0.406 1.635 0.63 3.399 0.641 5.214 0.159 2.538 0.746 4.891 1.691 7.053 2.608-1.071 5.674-1.612 8.868-1.612 8.83 0 16.693 4.139 21.755 10.583 5.637-3.747 9.261-10.082 9.261-17.264 0-0.012 0-0.023 0-0.035v-358.859c0.464-7.513 6.671-13.43 14.259-13.43s13.795 5.917 14.257 13.389l0.002 359.209c-0.036 20.534-12.567 38.132-30.393 45.6-2.323 0.941-2.067 5.241 0.083 4.781s14.746-5.683 24.781-4.352c72.806 9.523 120.269 64.614 147.866 91.494 3.123 3.021 8.602 9.984 11.315-1.485 1.792-7.578 13.158-72.653 22.374-115.917 2.253-10.598 0.819-15.872-8.294-23.245-47.667-38.656-78.592-106.035-101.888-197.171-10.235-38.304-18.102-83.674-22.020-130.169-0.259-3.806-0.293-4.804-0.293-5.81 0-23.419 18.198-42.588 41.225-44.136l3.053-0.007c23.37 0.057 42.483 18.207 44.076 41.18 3.592 54.359 35.489 201.918 96.161 268.119 10.24 11.264 14.592-0.768 15.36-7.014 16.435-169.984 107.52-277.658 111.565-282.522 7.825-9.735 19.732-15.914 33.082-15.914 23.385 0 42.342 18.957 42.342 42.342 0 11.119-4.286 21.237-11.295 28.792zM566.477 712.397c10.204-4.211 22.051-6.657 34.469-6.657 51.125 0 92.57 41.445 92.57 92.57s-41.445 92.57-92.57 92.57c-51.125 0-92.57-41.445-92.57-92.57 0-7.094 0.798-14.003 2.309-20.639 6.751-29.565 27.639-53.744 55.174-65.049z" />
<glyph unicode="&#xe910;" glyph-name="va-iconFont_food" d="M724.173 178.995c-10.573-23.457-21.119-43.007-32.844-61.744l141.439 2.148c23.859 0 44.032 7.936 47.206 34.458l45.517 267.162h-157.491c0.598-9.324 0.938-20.217 0.938-31.19 0-76.336-16.485-148.821-46.088-214.091zM894.976 741.632c-13.875 38.554-43.674 47.36-68.147 54.579-3.891 1.126-7.782 2.253-11.776 3.533-26.112 61.030-84.275 69.325-133.12 69.325s-106.752-8.192-133.12-68.813l-11.622-3.584c-24.576-7.475-54.477-16.538-68.096-55.654-58.368-22.477-99.226-85.35-99.226-155.853 0.011-7.972 0.55-15.807 1.585-23.485l318.313 0.906c32.854-0.026 60.341-22.969 67.342-53.706 3.622-18.435 6.284-36.304 8.23-53.865h164.659c39.865 28.824 65.503 75.191 65.503 127.546 0 0.844-0.007 1.686-0.020 2.527 0.053 71.348-41.419 134.273-100.504 156.545zM28.467 353.587c0-67.482 56.883-122.214 127.078-122.214 0.054 0 0.117 0 0.18 0 14.584 0 28.607 2.399 41.697 6.823 12.394 4.134 24.682-0.781 28.471-13.786 18.995-65.485 51.2-130.253 104.038-180.941 11.978-9.844 27.31-16.009 44.061-16.585l164.272-0.003c16.927 0.53 32.35 6.559 44.646 16.348 51.661 47.908 188.007 202.173 137.523 457.866-3.718 13.781-16.027 23.786-30.7 23.961h-457.441c-0.020 0-0.045 0-0.069 0-14.289 0-26.132-10.471-28.275-24.159-0.277-2.926-0.584-5.896-0.84-9.121-0.273-10.448-8.808-18.814-19.296-18.814-1.75 0-3.445 0.233-5.057 0.669-6.881 1.33-14.953 2.112-23.206 2.119-70.201 0.051-127.084-54.63-127.084-122.163zM87.142 353.587c0.74 36.499 30.503 65.804 67.11 65.804 0.455 0 0.908-0.005 1.361-0.014-0.055 0.001-0.039 0.001-0.024 0.001 7.119 0 13.994-1.048 20.478-2.997 10.198-3.045 18.749-19.173 19.977-32.638l5.12-52.89c1.28-13.466-5.837-32.614-18.739-37.888-7.81-3.24-16.88-5.121-26.389-5.121-0.137 0-0.273 0-0.409 0.001-0.425-0.011-0.95-0.017-1.477-0.017-36.609 0-66.373 29.307-67.109 65.74z" />
<glyph unicode="&#xe911;" glyph-name="va-iconFont_footer-faq" d="M868.301 744.96v-481.792l-61.44 44.032c-19.165 13.827-43.123 22.115-69.017 22.118h-582.145v415.642h712.602zM868.301 863.744h-712.602c-65.603 0-118.784-53.181-118.784-118.784v-415.744c0-65.603 53.181-118.784 118.784-118.784h581.939l249.395-178.125v712.653c0 65.603-53.181 118.784-118.784 118.784z" />
<glyph unicode="&#xe912;" glyph-name="va-iconFont_footer-home" d="M969.011 493.363l-418.15 358.4c-10.379 8.951-23.996 14.402-38.886 14.402s-28.507-5.451-38.964-14.467l-418.073-358.335c-12.639-11.015-20.582-27.14-20.582-45.121 0-32.999 26.751-59.75 59.75-59.75 14.757 0 28.265 5.35 38.689 14.216l20.805 17.798v-330.906c0-0.015 0-0.033 0-0.051 0-32.971 26.728-59.699 59.699-59.699 0.018 0 0.036 0 0.054 0h597.348c32.971 0 59.699 26.728 59.699 59.699 0 0.018 0 0.036 0 0.054v330.954l20.89-17.92c10.378-8.931 23.984-14.369 38.861-14.369 32.989 0 59.733 26.743 59.733 59.733 0 18.113-8.062 34.343-20.793 45.297zM750.95 507.75v-358.4h-179.2v179.2c0.016 0.521 0.026 1.134 0.026 1.749 0 32.999-26.751 59.75-59.75 59.75s-59.75-26.751-59.75-59.75c0-0.615 0.009-1.228 0.028-1.838l-0.002-179.111h-179.2v358.4c-0.047 4.911-0.679 9.652-1.83 14.186l240.729 205.821 240.64-206.234c-1.046-4.127-1.661-8.871-1.69-13.754z" />
<glyph unicode="&#xe913;" glyph-name="va-iconFont_leaf" d="M749.875 536.934c76.8-104.602 86.682-165.478 83.354-196.71 47.462-37.478 94.259-80.691 128.819-126.669 24.781-32.922-35.226-116.122-49.050-41.933-6.554 35.072-49.306 81.92-103.526 125.645-25.6-22.784-91.75-62.259-240.64-64.768-266.752-4.659-441.958 336.538-512.819 521.779 239.821-152.269 487.066 64.922 693.862-217.344z" />
<glyph unicode="&#xe914;" glyph-name="va-iconFont_menu-home" d="M512.973 791.040l-369.101-316.416h105.472v-369.101h527.309v369.101h105.472l-369.152 316.416z" />
<glyph unicode="&#xe915;" glyph-name="va-iconFont_menu-plane" d="M660.48 152.474c-0.298-0.008-0.649-0.012-1.001-0.012-10.042 0-19.247 3.582-26.407 9.538-7.257 6.326-11.859 15.669-11.859 26.086 0 0.638 0.017 1.273 0.051 1.903l7.267 214.952-160.154-93.594-199.066-103.526-231.68 168.96 93.901 52.787 144.64-25.6 94.106 57.856c2.522 2.063 5.331 4.041 8.279 5.811l83.42 48.666-202.138 36.198c-10.709 2.117-19.49 8.944-24.229 18.186-2.545 5.478-3.977 11.663-3.977 18.182 0 7.145 1.72 13.889 4.768 19.839l2.548 5.54c9.984 21.709 33.997 37.581 55.757 37.325l370.893-16.435 144.384 84.224c19.2 11.11 52.531 20.48 82.944 23.296 41.421 3.84 69.427-4.762 81.050-24.832l6.758-11.827c11.571-20.070 5.12-48.64-18.995-82.586-17.664-24.934-42.394-49.101-61.44-60.16l-104.909-61.44c-0.633-7.98-1.794-15.287-3.474-22.393l-65.39-280.353c-5.12-21.299-26.522-40.55-50.125-44.8l-6.246-1.178c-2.477-0.403-5.332-0.634-8.241-0.634-0.505 0-1.008 0.007-1.51 0.021zM661.094 459.315l-9.114-270.49c-0.034-0.199-0.054-0.428-0.054-0.662 0-1.196 0.513-2.273 1.331-3.022 2.11-1.336 4.675-2.127 7.424-2.127 1.369 0 2.691 0.196 3.942 0.561l6.147 1.153c11.52 2.048 23.501 12.134 25.6 21.555l65.587 281.344c1.684 7.163 2.754 15.455 2.967 23.961l0.31 8.603 119.501 69.632c13.107 7.578 35.123 27.597 51.917 51.2 18.739 26.419 21.094 43.162 17.459 49.459v0l-6.912 11.981c-3.635 6.246-19.302 12.544-51.61 9.574-28.979-2.714-57.293-11.725-70.349-19.251l-152.064-88.73-379.546 16.845c-9.267 0-21.811-9.011-26.624-19.456l-2.662-5.786c-1.167-1.989-1.856-4.381-1.856-6.933 0-1.473 0.23-2.892 0.655-4.224 0.57-1.036 1.673-1.835 2.974-1.999l283.36-50.69-155.238-90.573c-1.949-1.18-3.62-2.363-5.203-3.65l-2.374-1.726-104.397-64.102-145.306 25.6-42.598-24.013 177.664-129.536 181.862 94.618z" />
<glyph unicode="&#xe916;" glyph-name="va-iconFont_menu-reports" d="M662.579 520.448v269.875h-301.158v-145.613h-269.824v-539.034h840.806v414.72zM361.472 136.96h-238.592v476.518h238.541zM631.347 136.96h-238.643v622.080h238.592v-622.080zM901.222 136.96h-238.592v352h238.49z" />
<glyph unicode="&#xe917;" glyph-name="va-iconFont_menu-settings" d="M531.763 801.28c1.958-0.816 4.237-1.444 6.61-1.775 10.388-1.399 20.628-2.731 30.561-3.959 0-10.24 0-20.48 0-30.362-0.031-0.522-0.049-1.132-0.049-1.746 0-14.565 10.019-26.789 23.541-30.158 24.341-6.441 45.473-15.374 64.958-26.811 3.687-2.431 9.608-4.318 15.959-4.466 9.503 0.096 17.986 4.214 23.874 10.723 6.118 6.377 12.518 12.726 18.764 18.921l2.099 2.048c1.536-1.075 3.021-2.15 4.352-3.174 19.424-14.59 36.483-30.479 51.731-47.986 7.456-9.051 14.522-18.164 21.434-26.971l1.997-2.56-2.97-2.97c-5.632-5.683-11.008-11.11-16.486-16.282-7.073-6.155-11.518-15.171-11.518-25.226 0-6.786 2.025-13.099 5.503-18.368 10.299-17.547 18.93-37.976 24.759-59.556 3.708-15.887 16.196-26.247 31.105-26.247 0.331 0 0.661 0.005 0.99 0.015l0.464-0.001c5.581 0 11.52 0 18.739 0h11.366c0.563-3.994 1.075-8.038 1.638-12.237 0.717-5.12 1.382-10.598 2.15-15.872 0.409-2.737 1.052-5.187 1.926-7.523l-0.083-41.168c-0.816-1.958-1.444-4.237-1.775-6.61-1.399-10.388-2.731-20.628-3.959-30.561h-30.976c-0.336 0.013-0.731 0.020-1.127 0.020-14.545 0-26.752-10.008-30.111-23.513-6.44-24.341-15.373-45.472-26.81-64.957-2.362-3.616-4.15-9.472-4.15-15.745 0-9.517 4.115-18.073 10.663-23.985 6.377-6.118 12.726-12.518 18.921-18.764l2.048-2.099c-1.075-1.536-2.15-3.021-3.174-4.352-14.589-19.425-30.478-36.483-47.985-51.731-9.051-7.457-18.165-14.522-26.971-21.434l-2.56-1.997-2.97 2.918c-5.683 5.632-11.11 11.008-16.282 16.486-6.114 6.963-15 11.364-24.916 11.469-6.896-0.085-13.288-2.095-18.7-5.514-17.525-10.289-37.953-18.92-59.533-24.75-15.757-3.804-25.989-16.23-25.989-31.045 0-0.298 0.004-0.596 0.012-0.892-0.001-9.889-0.001-20.027-0.001-30.011l-28.109-3.789c-2.737-0.409-5.187-1.052-7.523-1.926l-40.963 0.083c-1.958 0.816-4.237 1.444-6.61 1.775-10.388 1.399-20.628 2.731-30.561 3.959 0 10.24 0 20.48 0 30.362 0.031 0.522 0.049 1.132 0.049 1.746 0 14.565-10.019 26.789-23.541 30.158-24.341 6.441-45.473 15.374-64.958 26.811-3.687 2.431-9.608 4.318-15.959 4.466-9.503-0.096-17.986-4.214-23.874-10.723-6.118-6.377-12.518-12.726-18.764-18.921l-2.099-2.099c-1.536 1.075-3.021 2.15-4.352 3.174-19.424 14.59-36.483 30.479-51.731 47.986-7.456 9.051-14.573 18.165-21.434 26.971l-1.997 2.56 2.918 2.97c5.632 5.683 11.008 11.11 16.486 16.282 7.073 6.155 11.518 15.171 11.518 25.226 0 6.786-2.025 13.099-5.503 18.368-10.299 17.547-18.93 37.976-24.759 59.556-3.708 15.887-16.196 26.247-31.105 26.247-0.331 0-0.661-0.005-0.99-0.015l-0.413 0.001c-5.581 0-11.52 0-18.739 0h-11.52c-0.563 3.994-1.075 8.038-1.638 12.237-0.717 5.12-1.382 10.598-2.15 15.872-0.409 2.737-1.052 5.187-1.926 7.523l0.083 40.4c0.816 1.958 1.444 4.237 1.775 6.61 1.399 10.388 2.731 20.628 3.959 30.561h30.976c0.336-0.013 0.731-0.020 1.127-0.020 14.545 0 26.752 10.008 30.111 23.513 6.44 24.341 15.373 45.472 26.81 64.957 2.362 3.616 4.15 9.472 4.15 15.745 0 9.517-4.115 18.073-10.663 23.985-6.326 6.118-12.726 12.518-18.921 18.764l-2.099 2.099c1.075 1.536 2.15 3.021 3.174 4.352 14.604 19.424 30.509 36.483 48.034 51.728 9.054 7.459 18.168 14.576 26.974 21.436l2.56 1.997 2.97-2.918c5.683-5.632 11.11-11.008 16.282-16.486 6.114-6.963 15-11.364 24.916-11.469 6.896 0.085 13.288 2.095 18.7 5.514 17.525 10.289 37.953 18.921 59.533 24.75 15.846 3.739 26.165 16.207 26.165 31.086 0 0.518-0.013 1.033-0.037 1.545 0.003 9.861 0.003 19.998 0.003 29.982l28.109 3.789c2.698 0.477 5.087 1.17 7.363 2.084l41.174-0.087zM513.28 246.938c55.141 0.006 105.001 22.611 140.823 59.057 36.383 36.393 58.869 86.625 58.869 142.11 0 110.739-89.571 200.558-200.217 200.959h-1.933c-55.173-0.020-105.054-22.664-140.873-59.157-36.385-36.395-58.87-86.627-58.87-142.111 0-110.739 89.571-200.558 200.217-200.959h1.933zM538.522 826.88h-53.043c-1.699-0.817-3.695-1.537-5.771-2.053-13.634-1.992-27.1-3.477-40.463-5.678-7.117-1.178-9.626-5.12-9.677-12.39 0-13.875 0-27.802 0-41.677 0.046-0.288 0.072-0.621 0.072-0.96 0-3.29-2.482-5.999-5.675-6.359-25.689-6.904-48.14-16.407-68.883-28.517-0.268-0.362-2.197-1.051-4.279-1.18-2.623 0.167-4.884 1.445-6.366 3.358-9.487 10.26-19.676 19.681-29.301 29.613-1.73 2.082-4.243 3.462-7.081 3.684-2.373-0.129-4.472-1.058-6.086-2.514-13.559-10.744-27.383-21.189-40.951-32.197-19.192-16.74-36.238-35.037-51.259-54.949-4.959-6.184-8.287-12.021-12.178-17.141-1.365-1.537-2.198-3.572-2.198-5.802 0-2.821 1.334-5.331 3.407-6.932 10.26-10.255 20.142-20.495 30.433-30.274 1.768-1.269 2.906-3.318 2.906-5.632 0-1.586-0.534-3.048-1.433-4.214-11.86-20.137-21.673-43.437-28.218-68.067-0.958-4.668-3.309-6.69-6.131-6.69-0.323 0-0.641 0.027-0.95 0.078l-0.222-0.005c-6.451 0-12.851 0-19.302 0h-21.76c-0.524 0.081-1.129 0.128-1.744 0.128-6.617 0-11.981-5.364-11.981-11.981 0-0.099 0.001-0.197 0.004-0.296-1.741-13.451-3.379-26.865-5.12-40.28 0-1.229-1.331-2.304-2.048-3.482v-53.043c0.818-1.7 1.537-3.695 2.053-5.771 1.992-13.634 3.477-27.099 5.678-40.463 1.178-7.117 5.12-9.626 12.39-9.677h22.374c6.4 0 12.851 0 19.251 0h0.358c4.25 0 5.939-1.792 7.014-5.683 6.901-25.66 16.404-48.111 28.514-68.854 0.486-0.094 1.214-1.94 1.214-3.956 0-2.729-1.335-5.147-3.387-6.636-10.264-9.488-19.685-19.677-29.617-29.303-2.252-1.584-3.705-4.172-3.705-7.099 0-2.36 0.945-4.5 2.478-6.061 10.751-13.567 21.196-27.391 32.204-40.959 16.768-19.296 35.1-36.426 55.059-51.519 6.022-4.801 11.859-8.283 17.235-12.174 1.596-1.274 3.612-2.084 5.811-2.201 2.8 0.163 5.243 1.454 6.926 3.416 10.251 10.253 20.491 20.135 30.27 30.426 1.301 1.657 3.247 2.756 5.454 2.917 1.673-0.084 3.183-0.607 4.461-1.453 20.031-11.722 43.231-21.431 67.746-27.905 5.642-1.412 6.666-3.613 6.615-7.351 0-13.67 0-27.341 0-40.96-0.081-0.524-0.128-1.129-0.128-1.744 0-6.617 5.364-11.981 11.981-11.981 0.099 0 0.197 0.001 0.296 0.004 13.451-1.741 26.865-3.379 40.28-5.12 1.229 0 2.304-1.331 3.482-2.048h53.043c1.7 0.818 3.695 1.537 5.771 2.053 13.634 1.992 27.099 3.477 40.463 5.678 7.117 1.178 9.626 5.12 9.677 12.39 0 13.875 0 27.802 0 41.677-0.046 0.287-0.072 0.617-0.072 0.954 0 3.307 2.509 6.029 5.727 6.365 25.688 6.903 48.138 16.407 68.881 28.516 0.268 0.362 2.197 1.051 4.279 1.18 2.623-0.167 4.884-1.445 6.366-3.358 9.487-10.26 19.676-19.681 29.301-29.613 1.73-2.082 4.243-3.462 7.081-3.684 2.373 0.129 4.472 1.058 6.086 2.514 13.559 10.744 27.383 21.189 40.951 32.197 19.296 16.768 36.427 35.1 51.519 55.059 4.801 6.022 8.283 11.859 12.174 17.235 1.365 1.537 2.198 3.572 2.198 5.802 0 2.821-1.334 5.331-3.407 6.932-10.26 10.255-20.142 20.495-30.433 30.274-1.768 1.269-2.906 3.318-2.906 5.632 0 1.586 0.534 3.048 1.433 4.214 11.709 20.033 21.401 43.217 27.863 67.712 0.954 4.666 3.304 6.687 6.127 6.687 0.323 0 0.641-0.027 0.95-0.078l0.222 0.005c6.451 0 12.851 0 19.302 0h21.76c0.524-0.081 1.129-0.128 1.744-0.128 6.617 0 11.981 5.364 11.981 11.981 0 0.099-0.001 0.197-0.004 0.296 1.741 13.451 3.379 26.865 5.12 40.28 0 1.229 1.331 2.304 2.048 3.482v52.992c-0.818 1.7-1.537 3.695-2.053 5.771-1.992 13.634-3.477 27.099-5.678 40.463-1.178 7.117-5.12 9.626-12.39 9.677h-22.374c-6.4 0-12.851 0-19.251 0h-0.358c-4.25 0-5.939 1.792-7.014 5.683-6.901 25.66-16.404 48.111-28.514 68.854-0.486 0.094-1.214 1.94-1.214 3.956 0 2.729 1.335 5.147 3.387 6.636 10.264 9.488 19.685 19.677 29.617 29.303 2.252 1.584 3.705 4.172 3.705 7.099 0 2.36-0.945 4.5-2.478 6.061-10.751 13.567-21.196 27.391-32.204 40.959-16.769 19.296-35.101 36.426-55.060 51.519-6.022 4.801-11.859 8.282-17.235 12.174-1.596 1.274-3.612 2.084-5.811 2.201-2.8-0.163-5.243-1.454-6.926-3.416-10.251-10.253-20.491-20.135-30.27-30.426-1.301-1.657-3.247-2.756-5.454-2.917-1.673 0.084-3.183 0.607-4.461 1.453-20.031 11.739-43.23 21.465-67.745 27.955-5.643 1.413-6.667 3.615-6.616 7.352 0 13.67 0 27.341 0 40.96 0.081 0.524 0.128 1.129 0.128 1.744 0 6.617-5.364 11.981-11.981 11.981-0.099 0-0.197-0.001-0.296-0.004-13.451 1.741-26.865 3.379-40.28 5.12-1.229 0-2.304 1.331-3.482 2.048zM513.229 272.538h-1.638c-96.647 0.436-174.85 78.783-175.053 175.443 0 96.326 78.95 175.379 174.080 175.379h1.638c96.677-0.348 174.945-78.67 175.206-175.335 0-96.332-78.95-175.385-174.080-175.385z" />
<glyph unicode="&#xe918;" glyph-name="va-iconFont_movie" d="M871.885 839.219h-719.77c-17.254-0.058-31.225-14.029-31.283-31.278v-719.826c0.058-17.254 14.029-31.225 31.278-31.283h719.775c17.254 0.058 31.225 14.029 31.283 31.278v719.775c-0.029 17.276-14.011 31.276-31.278 31.334zM277.299 142.848c-0.029-8.641-7.026-15.638-15.664-15.667h-46.953c-8.641 0.029-15.638 7.026-15.667 15.664v46.953c0.029 8.641 7.026 15.638 15.664 15.667h46.953c8.641-0.029 15.638-7.026 15.667-15.664zM277.299 283.699c-0.029-8.641-7.026-15.638-15.664-15.667h-46.953c-8.641 0.029-15.638 7.026-15.667 15.664v46.953c0.029 8.641 7.026 15.638 15.664 15.667h46.953c8.641-0.029 15.638-7.026 15.667-15.664zM277.299 424.55c-0.029-8.641-7.026-15.638-15.664-15.667h-46.953c-8.641 0.029-15.638 7.026-15.667 15.664v46.902c0.029 8.641 7.026 15.638 15.664 15.667h46.953c8.641-0.029 15.638-7.026 15.667-15.664zM277.299 565.402c-0.029-8.641-7.026-15.638-15.664-15.667h-46.953c-8.641 0.029-15.638 7.026-15.667 15.664v46.902c0.029 8.641 7.026 15.638 15.664 15.667h46.953c8.641-0.029 15.638-7.026 15.667-15.664zM277.299 706.253c-0.029-8.641-7.026-15.638-15.664-15.667h-46.953c-8.641 0.029-15.638 7.026-15.667 15.664v46.902c0.029 8.641 7.026 15.638 15.664 15.667h46.953c8.641-0.029 15.638-7.026 15.667-15.664zM677.12 103.782h-330.24v94.464c0.029 8.641 7.026 15.638 15.664 15.667h298.96c8.641-0.029 15.638-7.026 15.667-15.664zM421.683 362.65v170.803c0 17.203 12.646 25.037 28.058 17.408l177.306-87.501c15.36-7.629 15.36-20.48 0-28.006l-177.408-89.754c-15.36-7.885-27.955 0-27.955 17.050zM677.12 698.368c-0.029-8.641-7.026-15.638-15.664-15.667h-298.908c-8.641 0.029-15.638 7.026-15.667 15.664v93.904h330.24zM824.32 142.848c-0.029-8.641-7.026-15.638-15.664-15.667h-46.953c-8.641 0.029-15.638 7.026-15.667 15.664v46.953c0.029 8.641 7.026 15.638 15.664 15.667h46.953c8.641-0.029 15.638-7.026 15.667-15.664zM824.32 283.699c-0.029-8.641-7.026-15.638-15.664-15.667h-46.953c-8.641 0.029-15.638 7.026-15.667 15.664v46.953c0.029 8.641 7.026 15.638 15.664 15.667h46.953c8.641-0.029 15.638-7.026 15.667-15.664zM824.32 424.55c-0.029-8.641-7.026-15.638-15.664-15.667h-46.953c-8.641 0.029-15.638 7.026-15.667 15.664v46.902c0.029 8.641 7.026 15.638 15.664 15.667h46.953c8.641-0.029 15.638-7.026 15.667-15.664zM824.32 565.402c-0.029-8.641-7.026-15.638-15.664-15.667h-46.953c-8.641 0.029-15.638 7.026-15.667 15.664v46.902c0.029 8.641 7.026 15.638 15.664 15.667h46.953c8.641-0.029 15.638-7.026 15.667-15.664zM824.32 706.253c-0.029-8.641-7.026-15.638-15.664-15.667h-46.953c-8.641 0.029-15.638 7.026-15.667 15.664v46.902c0.029 8.641 7.026 15.638 15.664 15.667h46.953c8.641-0.029 15.638-7.026 15.667-15.664z" />
<glyph unicode="&#xe919;" glyph-name="va-iconFont_no" d="M527.36 857.6c-229.044 0-414.72-185.676-414.72-414.72s185.676-414.72 414.72-414.72c229.044 0 414.72 185.676 414.72 414.72s-185.676 414.72-414.72 414.72zM527.36 753.92c67.492-0.109 129.878-21.879 180.601-58.728l-433.632-431.922c-36.269 50.114-58.013 112.809-58.013 180.584 0 171.245 138.822 310.067 310.067 310.067 0.343 0 0.687-0.001 1.030-0.002zM527.36 131.84c-67.492 0.113-129.877 21.882-180.602 58.728l433.633 431.922c36.187-49.812 57.921-112.164 58.010-179.588-0.204-171.722-139.339-310.858-311.020-311.061z" />
<glyph unicode="&#xe91a;" glyph-name="va-iconFont_pen" d="M889.344 671.846l-61.44-61.44-153.6 153.6 61.44 61.44c6.072 5.801 14.318 9.372 23.398 9.372s17.326-3.571 23.411-9.384l106.79-106.791c5.967-5.998 9.656-14.267 9.656-23.398s-3.689-17.401-9.657-23.4zM376.218 158.106l-153.6 153.6 396.902 397.414 153.6-153.6-396.902-397.414zM187.187 237.722l114.893-115.046-160-45.107 45.107 160.154zM944.128 773.427l-106.752 106.906c-20.838 20.838-96.102 60.262-156.211 0l-540.774-541.184c-4.613-4.525-8.050-10.234-9.82-16.634l-81.572-290.463c-0.871-3.091-1.371-6.641-1.371-10.308 0-10.74 4.294-20.476 11.26-27.587 9.875-10.233 29.587-11.769 37.881-9.875l290.048 81.92c6.662 1.832 12.371 5.269 16.89 9.876l540.422 540.883c19.971 20.045 32.319 47.697 32.319 78.234s-12.348 58.189-32.322 78.237z" />
<glyph unicode="&#xe91b;" glyph-name="va-iconFont_point-down" d="M540.16 148.992l276.173 276.173c6.848 7.142 11.063 16.854 11.063 27.55 0 21.999-17.834 39.834-39.834 39.834-10.696 0-20.408-4.216-27.564-11.077l-208.165-208.166v445.44c0 21.999-17.834 39.834-39.834 39.834s-39.834-17.834-39.834-39.834v-445.44l-208.179 208.179c-7.263 7.576-17.467 12.284-28.77 12.284-21.999 0-39.834-17.834-39.834-39.834 0-11.303 4.708-21.507 12.27-28.757l276.187-276.186c7.208-7.205 17.164-11.66 28.16-11.66s20.952 4.456 28.16 11.661z" />
<glyph unicode="&#xe91c;" glyph-name="va-iconFont_point-left" d="M212.992 419.84l276.173-276.173c7.263-7.576 17.467-12.284 28.77-12.284 21.999 0 39.834 17.834 39.834 39.834 0 11.303-4.708 21.507-12.27 28.757l-208.193 208.193h445.44c21.999 0 39.834 17.834 39.834 39.834s-17.834 39.834-39.834 39.834h-445.44l208.179 208.179c7.576 7.263 12.284 17.467 12.284 28.77 0 21.999-17.834 39.834-39.834 39.834-11.303 0-21.507-4.708-28.757-12.27l-276.186-276.187c-7.205-7.208-11.66-17.164-11.66-28.16s4.456-20.952 11.661-28.16z" />
<glyph unicode="&#xe91d;" glyph-name="va-iconFont_point-right" d="M811.008 476.16l-276.173 276.173c-7.142 6.848-16.854 11.063-27.55 11.063-21.999 0-39.834-17.834-39.834-39.834 0-10.696 4.216-20.408 11.077-27.564l208.166-208.165h-445.44c-21.999 0-39.834-17.834-39.834-39.834s17.834-39.834 39.834-39.834h445.44l-208.179-208.179c-7.576-7.263-12.284-17.467-12.284-28.77 0-21.999 17.834-39.834 39.834-39.834 11.303 0 21.507 4.708 28.757 12.27l276.186 276.187c7.205 7.208 11.66 17.164 11.66 28.16s-4.456 20.952-11.661 28.16z" />
<glyph unicode="&#xe91e;" glyph-name="va-iconFont_point-up" d="M483.84 747.008l-276.173-276.173c-7.576-7.263-12.284-17.467-12.284-28.77 0-21.999 17.834-39.834 39.834-39.834 11.303 0 21.507 4.708 28.757 12.27l208.193 208.193v-445.44c0-21.999 17.834-39.834 39.834-39.834s39.834 17.834 39.834 39.834v445.44l208.179-208.179c7.263-7.576 17.467-12.284 28.77-12.284 21.999 0 39.834 17.834 39.834 39.834 0 11.303-4.708 21.507-12.27 28.757l-276.187 276.186c-7.208 7.205-17.164 11.66-28.16 11.66s-20.952-4.456-28.16-11.661z" />
<glyph unicode="&#xe91f;" glyph-name="va-iconFont_question" d="M200.806 678.656l28.518 23.347 88.115-25.907 18.125 15.36-67.379 44.237 36.301 31.078 25.907-5.12 15.36 12.954-28.314 18.125-12.954 33.69-15.36-12.954v-28.518l-36.301-31.078-33.894 72.55-18.125-15.36 10.24-90.726-25.805-23.501c-2.387-2.288-3.871-5.502-3.871-9.062s1.484-6.775 3.866-9.058c5.227-2.615 12.958-2.615 15.569-0.055zM910.95 562.022c-31.797 107.312-102.279 194.667-194.914 247.749-62.575 35.333-134.967 55.516-212.073 55.516-0.882 0-1.764-0.003-2.646-0.008-49.119 0.001-95.762-7.782-134.623-23.347l-10.24-5.12 15.36-28.518 7.782 2.611c35.834 12.979 77.191 20.483 120.302 20.483 0.528 0 1.057-0.001 1.585-0.003 72.311-0.227 140.191-19.338 198.953-52.662 116.301-65.474 194.922-190.21 194.922-333.309 0-211.143-171.165-382.308-382.308-382.308-68.044 0-131.936 17.776-187.286 48.938-171.754 94.906-244.304 312.608-161.36 491.45l2.611 7.782-25.907 20.48-5.12-10.24c-93.286-196.966-15.36-432.845 176.23-539.085 57.702-32.62 126.711-51.842 200.21-51.842 155.457 0 290.83 85.991 361.147 213.002 23.030 41.824 39.332 88.017 47.38 136.989 4.24 22.972 6.472 46.523 6.472 70.595 0 39.545-6.023 77.683-17.2 113.547zM454.81 300.288h77.773v-103.68h-77.773v103.68zM662.17 543.898v0c0 85.504-62.208 137.37-155.494 137.37-72.55 0-121.805-31.078-160.717-75.162l51.814-54.426c31.13 33.69 67.379 51.814 109.107 51.814 49.254 0 77.773-25.907 77.773-64.819v-2.611c0-44.083-38.861-72.55-124.416-75.162l-2.611-5.12 12.954-111.462h54.221l5.12 54.426c72.602 20.736 132.25 62.208 132.25 145.152z" />
<glyph unicode="&#xe920;" glyph-name="va-iconFont_rewards" d="M839.68 448c0-180.378-146.995-334.029-334.029-334.029s-333.875 146.944-333.875 334.029 146.995 334.029 334.080 334.029c33.382 0 60.109-6.656 93.542-13.363l66.56 66.56c-46.746 13.363-100.198 26.726-153.6 26.726-227.123 0-414.208-187.085-414.208-414.208s187.085-414.208 414.208-414.208 414.362 187.341 414.362 414.464zM826.522 755.302l-354.099-354.048-133.632 126.925-53.453-60.109 187.085-187.085 414.208 414.208-60.109 60.109z" />
<glyph unicode="&#xe921;" glyph-name="va-iconFont_seat" d="M854.733 314.88c-25.6 23.757-324.864 1.28-431.002-11.418-13.568-1.587-36.403 28.467-39.322 79.923 0 0-16.435 496.128-108.493 490.957l-61.44-11.11c-76.8-17.664-38.963-217.242-38.963-217.242l124.518-502.733h60.006c-1.514-6.857-2.39-14.739-2.406-22.823 0-56.332 41.83-102.412 93.235-102.412h237.722c51.2 0 93.235 46.080 93.235 102.4-0.017 8.096-0.892 15.978-2.54 23.571l39.148-0.736s62.208 147.763 36.301 171.622zM740.096 120.32c0-33.485-23.091-60.672-51.558-60.672h-237.67c-28.416 0-51.507 27.238-51.507 60.672 0 0.048 0 0.105 0 0.162 0 8.12 1.388 15.915 3.939 23.162l333.009-0.489c2.433-6.801 3.84-14.647 3.84-22.821 0-0.005 0-0.010 0-0.015z" />
<glyph unicode="&#xe922;" glyph-name="va-iconFont_stairs" d="M414.72 435.251c6.896-8.918 17.489-14.69 29.441-15.001l3.788-0.001-1.434-105.062c-0.855-12.656-4.549-24.285-10.444-34.482l-62.311-100.533c-2.676-4.102-4.267-9.124-4.267-14.517 0-10.316 5.822-19.272 14.36-23.761l13.561-7.085c3.966-2.097 8.669-3.328 13.66-3.328 0.022 0 0.044 0 0.065 0 0.012 0 0.030 0 0.048 0 10.805 0 20.307 5.578 25.783 14.012l65.301 107.639c7.028 11.942 12.026 25.942 14.114 40.875l9.489 108.117s0 0.41 0 0.614l7.168 1.075 57.754-61.44c7.372-8.188 12.542-18.497 14.491-29.904l13.209-102.755c0.696-11.997 10.577-21.468 22.678-21.504 3.421 0.030 6.672 0.704 9.653 1.906l13.903 5.364c13.193 5.649 22.269 18.521 22.269 33.513 0 0.945-0.036 1.882-0.107 2.808l-17.503 111.032c-2.325 15.544-8.393 29.357-17.256 40.914l-68.965 84.73c-0.981 1.109-2.018 2.114-3.128 3.035l-0.712 17.445 87.706 6.502c12.1 0.896 21.579 10.934 21.579 23.185 0 0.851-0.046 1.691-0.135 2.518l0.009 1.485c-1.466 12.875-12.298 22.784-25.445 22.784-0.055 0-0.109 0-0.164-0.001l-56.312-0.358c-5.279 0.276-9.618 3.989-10.838 8.93l-51.217 147.998c-0.407 2.231-1.083 4.223-2.005 6.070-3.225 8.745-11.616 14.957-21.458 14.957-0.698 0-1.39-0.031-2.072-0.093l-70.414-9.005c-13.312-4.403-23.45-16.538-38.554-43.162l-61.030-108.032c-2.432-4.707-3.857-10.275-3.857-16.175 0-7.105 2.067-13.726 5.633-19.297zM411.136 551.629l32.666 48.947 3.123-112.384-35.072 46.848c-1.606 2.465-2.561 5.481-2.561 8.721 0 2.89 0.76 5.602 2.091 7.948zM466.688 727.603c0.016 0 0.036 0 0.055 0 39.418 0 71.373 31.955 71.373 71.373 0 9.322-1.787 18.226-5.037 26.389-10.493 26.425-36.244 45.129-66.377 45.24-39.452-0.011-71.418-31.984-71.418-71.424 0-9.302 1.778-18.189 5.013-26.339 10.493-26.424 36.244-45.128 66.377-45.239zM768.768 219.034c0.003 0.124 0.004 0.269 0.004 0.416 0 11.613-9.272 21.060-20.816 21.344-0.271 0.011-0.559 0.017-0.848 0.017-5.557 0-10.597-2.213-14.287-5.806-4.092-3.855-6.657-9.301-6.703-15.347l0.461-40.149h-178.739c-13.545 0-24.525-10.98-24.525-24.525v-43.315h-197.171c-13.545 0-24.525-10.98-24.525-24.525v-37.837c0-11.777 9.547-21.325 21.325-21.325s21.325 9.547 21.325 21.325v19.814h197.12c13.545 0 24.525 10.98 24.525 24.525v43.315h178.534c13.397 0.082 24.262 10.804 24.575 24.137z" />
<glyph unicode="&#xe923;" glyph-name="va-iconFont_suitcase" d="M882.125 643.277h-220.518v97.792c0 14.336-11.622 25.958-25.958 25.958h-247.245c0 0 0 0 0 0-14.347 0-25.98-11.616-26.010-25.956v-97.795h-220.518c-0.061 0-0.133 0.001-0.205 0.001-21.688 0-39.27-17.582-39.27-39.27 0 0 0 0 0-0.001v-435.814c0.029-21.666 17.6-39.219 39.27-39.219h740.454c21.67 0 39.241 17.553 39.27 39.216v435.817c0 21.688-17.582 39.27-39.27 39.27zM414.31 714.957h195.328v-71.68h-195.277z" />
<glyph unicode="&#xe924;" glyph-name="va-iconFont_tick" d="M958.669 692.224l-101.581 101.581c-5.563 5.582-13.258 9.035-21.76 9.035s-16.197-3.454-21.759-9.035l-423.169-423.169-179.968 179.763c-5.563 5.582-13.258 9.035-21.76 9.035s-16.197-3.454-21.759-9.035l-101.582-101.377c-5.582-5.563-9.035-13.258-9.035-21.76s3.454-16.197 9.035-21.759l303.31-303.31c5.563-5.582 13.258-9.035 21.76-9.035s16.197 3.454 21.759 9.035l546.51 546.51c5.582 5.563 9.035 13.258 9.035 21.76s-3.454 16.197-9.035 21.759z" />
<glyph unicode="&#xe925;" glyph-name="va-iconFont_umbrella" d="M539.802 495.565c0.003 0.141 0.004 0.308 0.004 0.475 0 15.496-12.562 28.058-28.058 28.058s-28.058-12.562-28.058-28.058c0-1.323 0.092-2.625 0.269-3.899l-0.017 0.147v-362.445c0-19.596-15.886-35.482-35.482-35.482s-35.482 15.886-35.482 35.482c0 15.453-12.527 27.981-27.981 27.981s-27.981-12.527-27.981-27.981c0-50.503 40.941-91.443 91.443-91.443s91.443 40.941 91.443 91.443v362.445c0.007 0.234 0.011 0.509 0.011 0.784 0 0.878-0.041 1.745-0.122 2.602zM266.24 565.76v0c7.948-4.175 14.646-8.319 21.035-12.868 14.805-6.485 23.355-4.489 23.355-4.489 9.671 2.762 16.856 10.945 18.112 20.972-1.267 99.451 22.131 188.027 67.085 248.75 5.427 12.288-1.331 18.432-1.331 18.432-2.899 1.125-6.253 1.777-9.76 1.777-2.893 0-5.683-0.444-8.305-1.266l-5.333-1.432-1.946-0.666c-138.726-41.178-250.532-135.455-313.991-258.697-4.063-8.516-10.566-24.542 0.494-27.818 1.236-0.143 2.668-0.225 4.12-0.225 5.729 0 11.161 1.272 16.030 3.548 29.216 21.703 66.255 34.799 106.353 34.799 30.757 0 59.714-7.704 85.047-21.289zM656.64 580.608c-0.512 96.205-25.6 180.070-72.090 233.523-11.082 13.524-24.010 25.003-38.514 34.223-10.060 5.958-21.384 9.249-33.478 9.249-11.841 0-22.944-3.155-32.516-8.67-15.901-9.142-29.634-20.787-40.954-34.498-47.46-54.626-72.65-140.489-72.343-238.69 0.512-8.397 3.584-24.371 19.763-27.29 3.637-0.906 7.812-1.426 12.109-1.426s8.472 0.52 12.466 1.5c30.363 23.631 58.932 37.865 100.66 37.865s70.502-14.234 101.069-38.042c3.591-0.885 7.714-1.392 11.955-1.392s8.364 0.508 12.311 1.465c21.814 3.869 19.51 32.388 19.51 32.388zM968.397 548.454c8.192 2.458 6.707 11.878 4.25 18.893-64.232 129.33-177.592 226.133-315.032 267.001l-3.637 0.928c-0.996 0.393-2.292 0.814-3.617 1.167l-2.118 0.574c-5.581 1.434-14.182 2.867-19.661 0 0 0-6.451-5.939-1.587-17.766 45.466-60.979 69.069-150.323 67.584-250.47 1.608-9.66 8.606-17.343 17.745-19.926s8.981-2.090 24.495 5.078c5.598 3.924 12.064 7.85 18.78 11.36l1.393 0.775c24.322 13.051 53.214 20.718 83.896 20.718 39.979 0 76.917-13.017 106.808-35.045 4.433-2.097 10.239-3.529 16.378-3.529 1.523 0 3.025 0.088 4.502 0.259z" />
<glyph unicode="&#xe926;" glyph-name="va-iconFont_vip" d="M237.056 633.754l18.483-495.565h-130.202l18.483 495.565h-64.102c-13.722 0-13.926 34.918 0 34.918h221.389c13.926 0 13.722-34.918 0-34.918zM690.842 25.498c0 35.84 18.944 67.072 65.536 67.072h154.419c46.592 0 65.536-31.078 65.536-67.072zM742.4 578.509c-29.645-300.902-431.104-300.902-460.8 0h27.904c79.002-206.387 325.99-206.387 405.043 0zM833.587 870.349c0.076 0 0.166 0 0.256 0 45.243 0 81.92-36.677 81.92-81.92s-36.677-81.92-81.92-81.92c-45.243 0-81.92 36.677-81.92 81.92 0 0.090 0 0.18 0 0.269 0.145 45.030 36.621 81.505 81.65 81.65zM190.413 870.349c0.076 0 0.165 0 0.255 0 45.243 0 81.92-36.677 81.92-81.92s-36.677-81.92-81.92-81.92c-45.243 0-81.92 36.677-81.92 81.92 0 0.144 0 0.288 0.001 0.431 0.145 45.021 36.621 81.497 81.65 81.642zM722.893 668.467h221.389c13.926 0 13.722-34.918 0-34.918h-64.102l18.483-495.565h-130.202l18.483 495.565h-64.051c-13.722 0-13.926 34.918 0 34.918zM47.667 25.498c0 35.84 18.944 67.072 65.536 67.072h154.419c46.592 0 65.536-31.078 65.536-67.072z" />
<glyph unicode="&#xe927;" glyph-name="va-iconFont_warning" d="M512 862.413c-228.874 0-414.413-185.539-414.413-414.413s185.539-414.413 414.413-414.413c228.874 0 414.413 185.539 414.413 414.413s-185.539 414.413-414.413 414.413zM559.411 209.050h-94.106v97.69h94.157zM562.227 679.834l-26.163-313.754h-47.411l-26.931 313.754v24.781h100.506z" />
<glyph unicode="&#xe928;" glyph-name="va-iconFont_wheelchair" d="M375.859 771.123c-4.241 9.51-6.711 20.608-6.711 32.282 0 0.279 0.001 0.557 0.004 0.836-0.001 0.055-0.001 0.171-0.001 0.286 0 11.518 2.47 22.459 6.908 32.323 8.525 19.432 24.106 35.013 43.494 43.526 10.056 4.454 21.157 6.923 32.835 6.923 0.275 0 0.55-0.001 0.825-0.004 0.056 0.001 0.171 0.001 0.287 0.001 11.518 0 22.459-2.47 32.323-6.908 9.806-4.395 18.631-10.4 26.206-17.696 7.524-7.25 13.575-16.028 17.653-25.832 4.139-9.888 6.435-20.791 6.435-32.231 0-0.152 0-0.303-0.001-0.455 0.006-0.328 0.009-0.743 0.009-1.159 0-22.686-9.222-43.218-24.121-58.053-14.507-15.167-34.902-24.593-57.499-24.593-0.523 0-1.044 0.005-1.564 0.015-0.152-0.004-0.423-0.005-0.694-0.005-11.682 0-22.786 2.47-32.821 6.916-19.413 8.521-34.994 24.102-43.507 43.49zM707.942 283.699c-2.725 0.768-5.855 1.209-9.088 1.209-7.206 0-13.9-2.192-19.451-5.946-7.986-5.257-13.867-13.409-16.157-22.958-2.139-10.541-5.037-19.587-8.792-28.173-8.254-21.98-19.761-41.724-34.003-59.145-14.21-17.478-30.779-32.86-49.247-45.7-37.869-26.158-83.798-41.476-133.304-41.476-0.103 0-0.206 0-0.309 0-0.47-0.004-1.044-0.006-1.619-0.006-31.696 0-61.879 6.478-89.297 18.183-26.809 11.361-51.053 27.397-71.781 47.098-20.336 19.497-36.98 42.862-48.741 68.906-12.033 26.892-18.714 56.661-18.714 87.991 0 23.956 3.906 46.999 11.116 68.528 7.233 21.236 17.51 40.99 30.326 58.794 12.876 17.883 28.251 33.827 45.618 47.329 17.94 13.947 37.94 25.417 59.457 33.871 16.127 5.167 26.448 18.506 26.448 34.255 0 4.644-0.897 9.078-2.528 13.139-3.585 8.962-10.735 16.112-19.697 19.698-5.228 2.372-11.064 3.706-17.211 3.706-4.414 0-8.668-0.688-12.66-1.963-30.345-11.728-56.827-26.81-80.613-45.209-23.247-17.911-43.856-39.106-61.125-62.883-17.129-23.628-30.741-49.899-40.115-78.105-9.449-28.307-14.564-58.563-14.564-90.013 0-0.21 0-0.42 0.001-0.631-0.005-0.576-0.008-1.297-0.008-2.017 0-40.97 8.923-79.857 24.932-114.821 15.86-34.732 37.982-65.802 64.951-91.893 27.342-26.317 59.496-47.701 95.007-62.698 36.511-15.504 76.61-24.072 118.711-24.072 0.764 0 1.527 0.003 2.29 0.008 0.204-0.002 0.584-0.003 0.964-0.003 32.896 0 64.598 5.112 94.354 14.584 29.396 9.356 56.893 22.825 81.865 39.74 24.746 16.764 46.882 37.255 65.543 60.641 18.842 23.517 33.982 50.067 44.576 78.817 4.76 11.758 8.608 23.582 11.518 35.77 1.106 4.312 1.555 7.407 1.555 10.607 0 7.089-2.203 13.663-5.961 19.076-5.621 7.931-14.105 13.672-23.943 15.718zM886.886 223.693l-121.6 216.934c-4.484 9.205-11.321 16.666-19.74 21.785-8.278 5.061-18.022 7.983-28.449 7.983-0.519 0-1.036-0.007-1.551-0.022l-136.167-8.498-20.787 87.040 109.261 1.485c0.827-0.065 1.791-0.102 2.763-0.102 5.844 0 11.374 1.341 16.301 3.732 5.758 2.75 10.515 7.358 13.473 13.051 2.545 4.62 3.998 9.935 3.998 15.589 0 12.47-7.065 23.291-17.412 28.676-4.211 2.566-9.095 4.036-14.323 4.036-0.248 0-0.494-0.003-0.74-0.010l-127.964-1.586-7.834 37.683c-1.242 4.916-2.557 8.978-4.095 12.929-0.046-0.257-0.224 0.332-0.224 0.962 0 0.121 0.007 0.24 0.019 0.357l-0.872 2.443c-3.994 12.544-7.987 22.886-18.79 30.72s-26.675 5.12-40.96 5.12c-17.51 0-45.773 0.358-57.651-11.571s-11.008-36.25-10.803-52.685c-0.002-0.099-0.003-0.216-0.003-0.332 0-2.219 0.338-4.36 0.965-6.373l-0.86 0.152 54.835-254.566c2.169-12.579 8.867-23.299 18.321-30.637 10.044-7.917 31.753-11.603 44.911-11.45 0.163-0.002 0.355-0.004 0.547-0.004 3 0 5.92 0.337 8.726 0.976l172.64 22.683 107.162-170.701c3.391-7.081 8.517-12.864 14.841-16.952 6.311-4.062 13.824-6.418 21.886-6.418 0.48 0 0.958 0.008 1.435 0.025-0.052-0.002-0.032-0.002-0.012-0.002 11.025 0 20.994 4.526 28.148 11.821 7.84 7.789 15.11 17.261 14.957 28.218-0.023 6.407-1.631 12.433-4.451 17.714z" />
</font>
</defs>
</svg>
