<svg xmlns="http://www.w3.org/2000/svg" xmlns:xlink="http://www.w3.org/1999/xlink" version="1.1" x="0" y="0" viewBox="0 0 382.8 382.8" xml:space="preserve" enable-background="new 0 0 382.8 382.8">
  <path fill="#d6083b" d="M346.9 99.1l-25.3 25.3 -63.3-63.4 25.3-25.3c5.2-5.2 14.1-5.2 19.3 0l44 44.1C352.2 85.2 352.2 93.8 346.9 99.1zM135.4 310.9l-63.3-63.4L235.7 83.7 299 147 135.4 310.9 135.4 310.9zM57.5 278.1l47.3 47.4 -65.9 18.6L57.5 278.1 57.5 278.1zM369.5 57.3l-44-44.1c-8.6-8.6-39.6-24.8-64.4 0l-222.9 223c-2 2-3.4 4.3-4.1 7L0.6 362.8c-1.6 5.5 0.1 11.5 4.1 15.6 4.1 4.1 12.2 4.8 15.6 4.1l119.5-33.7c2.7-0.7 5-2.1 7-4.1l222.7-223C387.2 104 387.2 75.1 369.5 57.3z"/>
</svg>
